<svg width="24" height="24" viewBox="0 0 24 24" fill="none" xmlns="http://www.w3.org/2000/svg">
<path d="M11.9699 24C5.36013 24 0 18.6264 0 12C0 5.3736 5.36013 0 11.9699 0C18.5797 0 23.9398 5.3736 23.9398 12C23.9398 18.6264 18.5797 24 11.9699 24Z" fill="#3B579D"/>
<path d="M15.0821 23.9996V14.7044H18.1943L18.6611 11.0828H15.0821V8.76918C15.0821 7.72038 15.3718 7.00518 16.8728 7.00518H18.7856V3.76758C18.4552 3.72438 17.3181 3.62598 15.9966 3.62598C13.2387 3.62598 11.3499 5.31318 11.3499 8.41398V11.0852H8.23053V14.7068H11.3499V23.9996H15.0821Z" fill="white"/>
</svg>
